<svg width="262" height="261" viewBox="0 0 262 261" fill="none" xmlns="http://www.w3.org/2000/svg">
<g opacity="0.79">
<path opacity="0.79" d="M196.162 195.757C232.18 159.739 232.18 101.343 196.162 65.3255C160.144 29.3078 101.748 29.3078 65.7303 65.3255C29.7126 101.343 29.7125 159.739 65.7302 195.757C101.748 231.775 160.144 231.775 196.162 195.757Z" stroke="white" stroke-width="0.5" stroke-miterlimit="10"/>
<path opacity="0.79" d="M191.566 191.161C225.045 157.682 225.045 103.401 191.566 69.9216C158.086 36.4423 103.806 36.4423 70.3263 69.9216C36.8469 103.401 36.8469 157.682 70.3262 191.161C103.806 224.64 158.086 224.64 191.566 191.161Z" stroke="white" stroke-width="0.7273" stroke-miterlimit="10"/>
<path opacity="0.79" d="M130.95 209.77C174.708 209.77 210.18 174.298 210.18 130.54C210.18 86.7825 174.708 51.31 130.95 51.31C87.1925 51.31 51.72 86.7825 51.72 130.54C51.72 174.298 87.1925 209.77 130.95 209.77Z" stroke="white" stroke-width="0.9545" stroke-miterlimit="10"/>
<path opacity="0.79" d="M130.95 203.28C171.123 203.28 203.69 170.713 203.69 130.54C203.69 90.3668 171.123 57.8 130.95 57.8C90.7768 57.8 58.21 90.3668 58.21 130.54C58.21 170.713 90.7768 203.28 130.95 203.28Z" stroke="white" stroke-width="1.1818" stroke-miterlimit="10"/>
<path opacity="0.79" d="M130.95 196.78C167.533 196.78 197.19 167.123 197.19 130.54C197.19 93.9567 167.533 64.3 130.95 64.3C94.3666 64.3 64.71 93.9567 64.71 130.54C64.71 167.123 94.3666 196.78 130.95 196.78Z" stroke="white" stroke-width="1.4091" stroke-miterlimit="10"/>
<path opacity="0.79" d="M130.95 190.28C163.943 190.28 190.69 163.534 190.69 130.54C190.69 97.5465 163.943 70.8 130.95 70.8C97.9565 70.8 71.21 97.5465 71.21 130.54C71.21 163.534 97.9565 190.28 130.95 190.28Z" stroke="white" stroke-width="1.6364" stroke-miterlimit="10"/>
<path opacity="0.79" d="M130.95 183.78C160.354 183.78 184.19 159.944 184.19 130.54C184.19 101.136 160.354 77.3 130.95 77.3C101.546 77.3 77.71 101.136 77.71 130.54C77.71 159.944 101.546 183.78 130.95 183.78Z" stroke="white" stroke-width="1.8636" stroke-miterlimit="10"/>
<path opacity="0.79" d="M130.95 177.28C156.764 177.28 177.69 156.354 177.69 130.54C177.69 104.726 156.764 83.8 130.95 83.8C105.136 83.8 84.21 104.726 84.21 130.54C84.21 156.354 105.136 177.28 130.95 177.28Z" stroke="white" stroke-width="2.0909" stroke-miterlimit="10"/>
<path opacity="0.79" d="M130.95 170.78C153.174 170.78 171.19 152.764 171.19 130.54C171.19 108.316 153.174 90.3 130.95 90.3C108.726 90.3 90.71 108.316 90.71 130.54C90.71 152.764 108.726 170.78 130.95 170.78Z" stroke="white" stroke-width="2.3182" stroke-miterlimit="10"/>
<path opacity="0.79" d="M130.95 164.28C149.584 164.28 164.69 149.174 164.69 130.54C164.69 111.906 149.584 96.8 130.95 96.8C112.316 96.8 97.21 111.906 97.21 130.54C97.21 149.174 112.316 164.28 130.95 164.28Z" stroke="white" stroke-width="2.5454" stroke-miterlimit="10"/>
<path opacity="0.79" d="M130.95 157.78C145.994 157.78 158.19 145.584 158.19 130.54C158.19 115.496 145.994 103.3 130.95 103.3C115.906 103.3 103.71 115.496 103.71 130.54C103.71 145.584 115.906 157.78 130.95 157.78Z" stroke="white" stroke-width="2.7727" stroke-miterlimit="10"/>
<path opacity="0.79" d="M130.95 151.28C142.404 151.28 151.69 141.994 151.69 130.54C151.69 119.086 142.404 109.8 130.95 109.8C119.496 109.8 110.21 119.086 110.21 130.54C110.21 141.994 119.496 151.28 130.95 151.28Z" stroke="white" stroke-width="3" stroke-miterlimit="10"/>
</g>
</svg>
