<svg xmlns="http://www.w3.org/2000/svg" version="1.1" xmlns:xlink="http://www.w3.org/1999/xlink" xmlns:svgjs="http://svgjs.dev/svgjs" width="1440" height="1440" preserveAspectRatio="none" viewBox="0 0 1440 1440"><g mask="url(&quot;#SvgjsMask1025&quot;)" fill="none"><path d="M720 1830.47C998.83 1829.25 1213.44 1607.16 1399.46 1399.46 1572.58 1206.13 1710.22 979.49 1714.47 720 1718.78 456.47 1605.5 207.21 1422.17 17.83 1235.68-174.81 988.12-308.36 720-307.21 452.86-306.05 227.44-149.11 23.85 23.85-204.49 217.85-491.39 420.36-489.04 720-486.69 1018.89-185.56 1203.21 34.59 1405.41 240.43 1594.45 440.52 1831.7 720 1830.47" fill="rgba(137, 137, 137, 0.53)"></path><path d="M720 1438.54C900.42 1437.75 1039.29 1294.05 1159.65 1159.65 1271.67 1034.56 1360.73 887.9 1363.48 720 1366.27 549.48 1292.97 388.2 1174.34 265.66 1053.67 141 893.49 54.59 720 55.34 547.15 56.08 401.29 157.64 269.55 269.55 121.8 395.08-63.84 526.11-62.32 720-60.8 913.4 134.05 1032.66 276.5 1163.5 409.69 1285.82 539.16 1439.33 720 1438.54" fill="rgba(201, 201, 201, 0.78)"></path><path d="M720 1046.61C802.01 1046.25 865.13 980.93 919.84 919.84 970.76 862.98 1011.24 796.32 1012.49 720 1013.76 642.49 980.44 569.18 926.52 513.48 871.67 456.82 798.86 417.54 720 417.88 641.43 418.22 575.13 464.38 515.25 515.25 448.09 572.31 363.71 631.87 364.4 720 365.09 807.91 453.66 862.12 518.41 921.59 578.95 977.19 637.8 1046.97 720 1046.61" fill="rgba(255, 255, 255, 0.88)"></path></g><defs><mask id="SvgjsMask1025"><rect width="1440" height="1440" fill="#ffffff"></rect></mask></defs></svg>