<svg xmlns="http://www.w3.org/2000/svg" version="1.1" xmlns:xlink="http://www.w3.org/1999/xlink" xmlns:svgjs="http://svgjs.dev/svgjs" width="1440" height="1440" preserveAspectRatio="none" viewBox="0 0 1440 1440"><g clip-path="url(&quot;#SvgjsClipPath1007&quot;)" fill="none"><circle r="240" cx="-229.36" cy="147.7" stroke="#9b9b9d" stroke-opacity="0.25" stroke-width="2"></circle><circle r="281.08" cx="411.3" cy="1258.8" stroke="#9b9b9d" stroke-opacity="0.25" stroke-width="2"></circle><circle r="374.535" cx="584.99" cy="193.64" stroke="#9b9b9d" stroke-opacity="0.25" stroke-width="2"></circle><circle r="339.525" cx="263.6" cy="845.58" stroke="#9b9b9d" stroke-opacity="0.25" stroke-width="2"></circle><circle r="279.99" cx="273.36" cy="620.56" stroke="#9b9b9d" stroke-opacity="0.25" stroke-width="2"></circle><circle r="255.545" cx="191.1" cy="965.47" stroke="#9b9b9d" stroke-opacity="0.25" stroke-width="2"></circle><circle r="288.845" cx="587.88" cy="677.46" stroke="#9b9b9d" stroke-opacity="0.25" stroke-width="2"></circle><circle r="137.22" cx="1031.49" cy="610.11" stroke="#9b9b9d" stroke-opacity="0.25" stroke-width="2"></circle><circle r="161.295" cx="1360.7" cy="67.77" stroke="#9b9b9d" stroke-opacity="0.25" stroke-width="2"></circle><circle r="120.375" cx="84.65" cy="1111.69" stroke="#9b9b9d" stroke-opacity="0.25" stroke-width="2"></circle><circle r="145.48" cx="618.37" cy="386.87" stroke="#9b9b9d" stroke-opacity="0.25" stroke-width="2"></circle><circle r="275.05" cx="1314.51" cy="249.64" stroke="#9b9b9d" stroke-opacity="0.25" stroke-width="2"></circle><circle r="123.69" cx="770.57" cy="393.24" stroke="#9b9b9d" stroke-opacity="0.25" stroke-width="2"></circle><circle r="452.215" cx="958.07" cy="410.66" stroke="#9b9b9d" stroke-opacity="0.25" stroke-width="2"></circle><circle r="148.625" cx="1211" cy="207" stroke="#9b9b9d" stroke-opacity="0.25" stroke-width="2"></circle><circle r="401.915" cx="1257.39" cy="189.61" stroke="#9b9b9d" stroke-opacity="0.25" stroke-width="2"></circle><circle r="386.64" cx="313.49" cy="563.88" stroke="#9b9b9d" stroke-opacity="0.25" stroke-width="2"></circle><circle r="137.505" cx="1203.12" cy="942.76" stroke="#9b9b9d" stroke-opacity="0.25" stroke-width="2"></circle><circle r="203.9" cx="207.34" cy="669.29" stroke="#9b9b9d" stroke-opacity="0.25" stroke-width="2"></circle><circle r="151.705" cx="1404.21" cy="1307.68" stroke="#9b9b9d" stroke-opacity="0.25" stroke-width="2"></circle><circle r="275.23" cx="1367.69" cy="1216.17" stroke="#9b9b9d" stroke-opacity="0.25" stroke-width="2"></circle><circle r="409.71" cx="909.21" cy="668.43" stroke="#9b9b9d" stroke-opacity="0.25" stroke-width="2"></circle><circle r="375.115" cx="879.1" cy="60.87" stroke="#9b9b9d" stroke-opacity="0.25" stroke-width="2"></circle><circle r="351.825" cx="1358.45" cy="1338.92" stroke="#9b9b9d" stroke-opacity="0.25" stroke-width="2"></circle><circle r="243.77" cx="145.12" cy="982.02" stroke="#9b9b9d" stroke-opacity="0.25" stroke-width="2"></circle><circle r="461.14" cx="1380.15" cy="1268" stroke="#9b9b9d" stroke-opacity="0.25" stroke-width="2"></circle><circle r="207.91" cx="54.35" cy="918.29" stroke="#9b9b9d" stroke-opacity="0.25" stroke-width="2"></circle><circle r="387.555" cx="933.05" cy="83.06" stroke="#9b9b9d" stroke-opacity="0.25" stroke-width="2"></circle><circle r="281.815" cx="827.98" cy="235.18" stroke="#9b9b9d" stroke-opacity="0.25" stroke-width="2"></circle><circle r="227.27" cx="1030.32" cy="1172.22" stroke="#9b9b9d" stroke-opacity="0.25" stroke-width="2"></circle><circle r="474.645" cx="431.55" cy="162.26" stroke="#9b9b9d" stroke-opacity="0.25" stroke-width="2"></circle><circle r="293.615" cx="725.05" cy="743.24" stroke="#9b9b9d" stroke-opacity="0.25" stroke-width="2"></circle><circle r="237.49" cx="134.51" cy="1281.48" stroke="#9b9b9d" stroke-opacity="0.25" stroke-width="2"></circle><circle r="446.65" cx="243.74" cy="619.32" stroke="#9b9b9d" stroke-opacity="0.25" stroke-width="2"></circle><circle r="234.865" cx="164.27" cy="201.83" stroke="#9b9b9d" stroke-opacity="0.25" stroke-width="2"></circle><circle r="273.94" cx="624.06" cy="691.42" stroke="#9b9b9d" stroke-opacity="0.25" stroke-width="2"></circle><circle r="152.505" cx="508.89" cy="208.86" stroke="#9b9b9d" stroke-opacity="0.25" stroke-width="2"></circle><circle r="428.645" cx="1332.51" cy="574.73" stroke="#9b9b9d" stroke-opacity="0.25" stroke-width="2"></circle><circle r="274.095" cx="424.43" cy="994.96" stroke="#9b9b9d" stroke-opacity="0.25" stroke-width="2"></circle><circle r="277.885" cx="150.76" cy="1353.13" stroke="#9b9b9d" stroke-opacity="0.25" stroke-width="2"></circle><circle r="361.65" cx="546.47" cy="275.26" stroke="#9b9b9d" stroke-opacity="0.25" stroke-width="2"></circle><circle r="323.32" cx="939.9" cy="714.06" stroke="#9b9b9d" stroke-opacity="0.25" stroke-width="2"></circle><circle r="269.61" cx="784.22" cy="783.56" stroke="#9b9b9d" stroke-opacity="0.25" stroke-width="2"></circle><circle r="356.06" cx="699.48" cy="731.52" stroke="#9b9b9d" stroke-opacity="0.25" stroke-width="2"></circle><circle r="194.58" cx="867.57" cy="1184.24" stroke="#9b9b9d" stroke-opacity="0.25" stroke-width="2"></circle><circle r="179.575" cx="1196.47" cy="746.38" stroke="#9b9b9d" stroke-opacity="0.25" stroke-width="2"></circle><circle r="383.335" cx="716.25" cy="210.83" stroke="#9b9b9d" stroke-opacity="0.25" stroke-width="2"></circle><circle r="299.28" cx="1144.47" cy="821.46" stroke="#9b9b9d" stroke-opacity="0.25" stroke-width="2"></circle><circle r="369.525" cx="1193.96" cy="62.86" stroke="#9b9b9d" stroke-opacity="0.25" stroke-width="2"></circle><circle r="462.665" cx="1409.44" cy="1404.55" stroke="#9b9b9d" stroke-opacity="0.25" stroke-width="2"></circle></g><defs><clipPath id="SvgjsClipPath1007"><rect width="1440" height="1440" x="0" y="0"></rect></clipPath></defs></svg>