<svg xmlns="http://www.w3.org/2000/svg" version="1.1" xmlns:xlink="http://www.w3.org/1999/xlink" xmlns:svgjs="http://svgjs.dev/svgjs" width="1440" height="682" preserveAspectRatio="none" viewBox="0 0 1440 682"><g mask="url(&quot;#SvgjsMask1024&quot;)" fill="none"><path d="M-64.95 508.06L-64.95 508.06" stroke="rgba(213, 213, 213, 0.61)" stroke-width="1.5"></path><path d="M-64.95 508.06L91.38 514.78" stroke="rgba(213, 213, 213, 0.61)" stroke-width="1.5"></path><path d="M-64.95 508.06L-107.98 678.52" stroke="rgba(213, 213, 213, 0.61)" stroke-width="1.5"></path><path d="M-64.95 508.06L54.16 665.08" stroke="rgba(213, 213, 213, 0.61)" stroke-width="1.5"></path><path d="M-64.95 508.06L203.57 562.18" stroke="rgba(213, 213, 213, 0.61)" stroke-width="1.5"></path><path d="M-107.98 678.52L-107.98 678.52" stroke="rgba(213, 213, 213, 0.61)" stroke-width="1.5"></path><path d="M-107.98 678.52L54.16 665.08" stroke="rgba(213, 213, 213, 0.61)" stroke-width="1.5"></path><path d="M-98.99 855.31L-98.99 855.31" stroke="rgba(213, 213, 213, 0.61)" stroke-width="1.5"></path><path d="M-98.99 855.31L-107.98 678.52" stroke="rgba(213, 213, 213, 0.61)" stroke-width="1.5"></path><path d="M-98.99 855.31L80.48 840.16" stroke="rgba(213, 213, 213, 0.61)" stroke-width="1.5"></path><path d="M-98.99 855.31L54.16 665.08" stroke="rgba(213, 213, 213, 0.61)" stroke-width="1.5"></path><path d="M-98.99 855.31L225.61 807.14" stroke="rgba(213, 213, 213, 0.61)" stroke-width="1.5"></path><path d="M-98.99 855.31L192.24 680.01" stroke="rgba(213, 213, 213, 0.61)" stroke-width="1.5"></path><path d="M91.38 514.78L91.38 514.78" stroke="rgba(213, 213, 213, 0.61)" stroke-width="1.5"></path><path d="M91.38 514.78L203.57 562.18" stroke="rgba(213, 213, 213, 0.61)" stroke-width="1.5"></path><path d="M54.16 665.08L54.16 665.08" stroke="rgba(213, 213, 213, 0.61)" stroke-width="1.5"></path><path d="M54.16 665.08L192.24 680.01" stroke="rgba(213, 213, 213, 0.61)" stroke-width="1.5"></path><path d="M54.16 665.08L91.38 514.78" stroke="rgba(213, 213, 213, 0.61)" stroke-width="1.5"></path><path d="M80.48 840.16L80.48 840.16" stroke="rgba(213, 213, 213, 0.61)" stroke-width="1.5"></path><path d="M80.48 840.16L225.61 807.14" stroke="rgba(213, 213, 213, 0.61)" stroke-width="1.5"></path><path d="M80.48 840.16L54.16 665.08" stroke="rgba(213, 213, 213, 0.61)" stroke-width="1.5"></path><path d="M80.48 840.16L192.24 680.01" stroke="rgba(213, 213, 213, 0.61)" stroke-width="1.5"></path><path d="M237.3 399.74L237.3 399.74" stroke="rgba(213, 213, 213, 0.61)" stroke-width="1.5"></path><path d="M237.3 399.74L203.57 562.18" stroke="rgba(213, 213, 213, 0.61)" stroke-width="1.5"></path><path d="M237.3 399.74L91.38 514.78" stroke="rgba(213, 213, 213, 0.61)" stroke-width="1.5"></path><path d="M237.3 399.74L393.83 559.86" stroke="rgba(213, 213, 213, 0.61)" stroke-width="1.5"></path><path d="M237.3 399.74L192.24 680.01" stroke="rgba(213, 213, 213, 0.61)" stroke-width="1.5"></path><path d="M237.3 399.74L489.3 534.88" stroke="rgba(213, 213, 213, 0.61)" stroke-width="1.5"></path><path d="M203.57 562.18L203.57 562.18" stroke="rgba(213, 213, 213, 0.61)" stroke-width="1.5"></path><path d="M203.57 562.18L192.24 680.01" stroke="rgba(213, 213, 213, 0.61)" stroke-width="1.5"></path><path d="M192.24 680.01L192.24 680.01" stroke="rgba(213, 213, 213, 0.61)" stroke-width="1.5"></path><path d="M192.24 680.01L225.61 807.14" stroke="rgba(213, 213, 213, 0.61)" stroke-width="1.5"></path><path d="M225.61 807.14L225.61 807.14" stroke="rgba(213, 213, 213, 0.61)" stroke-width="1.5"></path><path d="M225.61 807.14L397.88 852.05" stroke="rgba(213, 213, 213, 0.61)" stroke-width="1.5"></path><path d="M393.83 559.86L393.83 559.86" stroke="rgba(213, 213, 213, 0.61)" stroke-width="1.5"></path><path d="M393.83 559.86L489.3 534.88" stroke="rgba(213, 213, 213, 0.61)" stroke-width="1.5"></path><path d="M393.83 559.86L364.93 658.8" stroke="rgba(213, 213, 213, 0.61)" stroke-width="1.5"></path><path d="M393.83 559.86L521.15 644.12" stroke="rgba(213, 213, 213, 0.61)" stroke-width="1.5"></path><path d="M393.83 559.86L203.57 562.18" stroke="rgba(213, 213, 213, 0.61)" stroke-width="1.5"></path><path d="M364.93 658.8L364.93 658.8" stroke="rgba(213, 213, 213, 0.61)" stroke-width="1.5"></path><path d="M364.93 658.8L521.15 644.12" stroke="rgba(213, 213, 213, 0.61)" stroke-width="1.5"></path><path d="M397.88 852.05L397.88 852.05" stroke="rgba(213, 213, 213, 0.61)" stroke-width="1.5"></path><path d="M397.88 852.05L559.78 836.15" stroke="rgba(213, 213, 213, 0.61)" stroke-width="1.5"></path><path d="M528.08 353.79L528.08 353.79" stroke="rgba(213, 213, 213, 0.61)" stroke-width="1.5"></path><path d="M528.08 353.79L689.82 355.52" stroke="rgba(213, 213, 213, 0.61)" stroke-width="1.5"></path><path d="M528.08 353.79L489.3 534.88" stroke="rgba(213, 213, 213, 0.61)" stroke-width="1.5"></path><path d="M528.08 353.79L687.82 538.61" stroke="rgba(213, 213, 213, 0.61)" stroke-width="1.5"></path><path d="M528.08 353.79L393.83 559.86" stroke="rgba(213, 213, 213, 0.61)" stroke-width="1.5"></path><path d="M489.3 534.88L489.3 534.88" stroke="rgba(213, 213, 213, 0.61)" stroke-width="1.5"></path><path d="M521.15 644.12L521.15 644.12" stroke="rgba(213, 213, 213, 0.61)" stroke-width="1.5"></path><path d="M521.15 644.12L489.3 534.88" stroke="rgba(213, 213, 213, 0.61)" stroke-width="1.5"></path><path d="M521.15 644.12L707.46 685.02" stroke="rgba(213, 213, 213, 0.61)" stroke-width="1.5"></path><path d="M521.15 644.12L559.78 836.15" stroke="rgba(213, 213, 213, 0.61)" stroke-width="1.5"></path><path d="M559.78 836.15L559.78 836.15" stroke="rgba(213, 213, 213, 0.61)" stroke-width="1.5"></path><path d="M559.78 836.15L671.29 794.55" stroke="rgba(213, 213, 213, 0.61)" stroke-width="1.5"></path><path d="M559.78 836.15L707.46 685.02" stroke="rgba(213, 213, 213, 0.61)" stroke-width="1.5"></path><path d="M559.78 836.15L364.93 658.8" stroke="rgba(213, 213, 213, 0.61)" stroke-width="1.5"></path><path d="M689.82 355.52L689.82 355.52" stroke="rgba(213, 213, 213, 0.61)" stroke-width="1.5"></path><path d="M687.82 538.61L687.82 538.61" stroke="rgba(213, 213, 213, 0.61)" stroke-width="1.5"></path><path d="M687.82 538.61L707.46 685.02" stroke="rgba(213, 213, 213, 0.61)" stroke-width="1.5"></path><path d="M687.82 538.61L861.92 515.99" stroke="rgba(213, 213, 213, 0.61)" stroke-width="1.5"></path><path d="M687.82 538.61L689.82 355.52" stroke="rgba(213, 213, 213, 0.61)" stroke-width="1.5"></path><path d="M707.46 685.02L707.46 685.02" stroke="rgba(213, 213, 213, 0.61)" stroke-width="1.5"></path><path d="M707.46 685.02L671.29 794.55" stroke="rgba(213, 213, 213, 0.61)" stroke-width="1.5"></path><path d="M671.29 794.55L671.29 794.55" stroke="rgba(213, 213, 213, 0.61)" stroke-width="1.5"></path><path d="M671.29 794.55L842.79 839.17" stroke="rgba(213, 213, 213, 0.61)" stroke-width="1.5"></path><path d="M862.42 249.57L862.42 249.57" stroke="rgba(213, 213, 213, 0.61)" stroke-width="1.5"></path><path d="M862.42 249.57L950.59 192.12" stroke="rgba(213, 213, 213, 0.61)" stroke-width="1.5"></path><path d="M862.42 249.57L857.48 358.47" stroke="rgba(213, 213, 213, 0.61)" stroke-width="1.5"></path><path d="M862.42 249.57L999.43 383.62" stroke="rgba(213, 213, 213, 0.61)" stroke-width="1.5"></path><path d="M862.42 249.57L689.82 355.52" stroke="rgba(213, 213, 213, 0.61)" stroke-width="1.5"></path><path d="M862.42 249.57L1094.15 373.79" stroke="rgba(213, 213, 213, 0.61)" stroke-width="1.5"></path><path d="M862.42 249.57L861.92 515.99" stroke="rgba(213, 213, 213, 0.61)" stroke-width="1.5"></path><path d="M857.48 358.47L857.48 358.47" stroke="rgba(213, 213, 213, 0.61)" stroke-width="1.5"></path><path d="M857.48 358.47L999.43 383.62" stroke="rgba(213, 213, 213, 0.61)" stroke-width="1.5"></path><path d="M861.92 515.99L861.92 515.99" stroke="rgba(213, 213, 213, 0.61)" stroke-width="1.5"></path><path d="M861.92 515.99L1007.67 496.21" stroke="rgba(213, 213, 213, 0.61)" stroke-width="1.5"></path><path d="M861.92 515.99L857.48 358.47" stroke="rgba(213, 213, 213, 0.61)" stroke-width="1.5"></path><path d="M861.59 704.24L861.59 704.24" stroke="rgba(213, 213, 213, 0.61)" stroke-width="1.5"></path><path d="M861.59 704.24L978.41 697.58" stroke="rgba(213, 213, 213, 0.61)" stroke-width="1.5"></path><path d="M861.59 704.24L842.79 839.17" stroke="rgba(213, 213, 213, 0.61)" stroke-width="1.5"></path><path d="M861.59 704.24L707.46 685.02" stroke="rgba(213, 213, 213, 0.61)" stroke-width="1.5"></path><path d="M861.59 704.24L993.79 797.96" stroke="rgba(213, 213, 213, 0.61)" stroke-width="1.5"></path><path d="M861.59 704.24L861.92 515.99" stroke="rgba(213, 213, 213, 0.61)" stroke-width="1.5"></path><path d="M842.79 839.17L842.79 839.17" stroke="rgba(213, 213, 213, 0.61)" stroke-width="1.5"></path><path d="M842.79 839.17L993.79 797.96" stroke="rgba(213, 213, 213, 0.61)" stroke-width="1.5"></path><path d="M842.79 839.17L978.41 697.58" stroke="rgba(213, 213, 213, 0.61)" stroke-width="1.5"></path><path d="M842.79 839.17L707.46 685.02" stroke="rgba(213, 213, 213, 0.61)" stroke-width="1.5"></path><path d="M842.79 839.17L1108.04 836.19" stroke="rgba(213, 213, 213, 0.61)" stroke-width="1.5"></path><path d="M950.59 192.12L950.59 192.12" stroke="rgba(213, 213, 213, 0.61)" stroke-width="1.5"></path><path d="M950.59 192.12L1121.23 112.3" stroke="rgba(213, 213, 213, 0.61)" stroke-width="1.5"></path><path d="M999.43 383.62L999.43 383.62" stroke="rgba(213, 213, 213, 0.61)" stroke-width="1.5"></path><path d="M999.43 383.62L1094.15 373.79" stroke="rgba(213, 213, 213, 0.61)" stroke-width="1.5"></path><path d="M999.43 383.62L1007.67 496.21" stroke="rgba(213, 213, 213, 0.61)" stroke-width="1.5"></path><path d="M999.43 383.62L861.92 515.99" stroke="rgba(213, 213, 213, 0.61)" stroke-width="1.5"></path><path d="M999.43 383.62L950.59 192.12" stroke="rgba(213, 213, 213, 0.61)" stroke-width="1.5"></path><path d="M1007.67 496.21L1007.67 496.21" stroke="rgba(213, 213, 213, 0.61)" stroke-width="1.5"></path><path d="M1007.67 496.21L1151.99 522.69" stroke="rgba(213, 213, 213, 0.61)" stroke-width="1.5"></path><path d="M978.41 697.58L978.41 697.58" stroke="rgba(213, 213, 213, 0.61)" stroke-width="1.5"></path><path d="M978.41 697.58L993.79 797.96" stroke="rgba(213, 213, 213, 0.61)" stroke-width="1.5"></path><path d="M978.41 697.58L1105.42 669.23" stroke="rgba(213, 213, 213, 0.61)" stroke-width="1.5"></path><path d="M978.41 697.58L1108.04 836.19" stroke="rgba(213, 213, 213, 0.61)" stroke-width="1.5"></path><path d="M993.79 797.96L993.79 797.96" stroke="rgba(213, 213, 213, 0.61)" stroke-width="1.5"></path><path d="M993.79 797.96L1108.04 836.19" stroke="rgba(213, 213, 213, 0.61)" stroke-width="1.5"></path><path d="M1152.85 -100.85L1152.85 -100.85" stroke="rgba(213, 213, 213, 0.61)" stroke-width="1.5"></path><path d="M1152.85 -100.85L1255.27 -54.82" stroke="rgba(213, 213, 213, 0.61)" stroke-width="1.5"></path><path d="M1152.85 -100.85L1121.23 112.3" stroke="rgba(213, 213, 213, 0.61)" stroke-width="1.5"></path><path d="M1152.85 -100.85L1300.6 95.84" stroke="rgba(213, 213, 213, 0.61)" stroke-width="1.5"></path><path d="M1152.85 -100.85L1436.88 -69.19" stroke="rgba(213, 213, 213, 0.61)" stroke-width="1.5"></path><path d="M1121.23 112.3L1121.23 112.3" stroke="rgba(213, 213, 213, 0.61)" stroke-width="1.5"></path><path d="M1121.23 112.3L1150.12 214.79" stroke="rgba(213, 213, 213, 0.61)" stroke-width="1.5"></path><path d="M1150.12 214.79L1150.12 214.79" stroke="rgba(213, 213, 213, 0.61)" stroke-width="1.5"></path><path d="M1150.12 214.79L1245.61 249.88" stroke="rgba(213, 213, 213, 0.61)" stroke-width="1.5"></path><path d="M1150.12 214.79L1094.15 373.79" stroke="rgba(213, 213, 213, 0.61)" stroke-width="1.5"></path><path d="M1150.12 214.79L1300.6 95.84" stroke="rgba(213, 213, 213, 0.61)" stroke-width="1.5"></path><path d="M1150.12 214.79L950.59 192.12" stroke="rgba(213, 213, 213, 0.61)" stroke-width="1.5"></path><path d="M1094.15 373.79L1094.15 373.79" stroke="rgba(213, 213, 213, 0.61)" stroke-width="1.5"></path><path d="M1094.15 373.79L1007.67 496.21" stroke="rgba(213, 213, 213, 0.61)" stroke-width="1.5"></path><path d="M1151.99 522.69L1151.99 522.69" stroke="rgba(213, 213, 213, 0.61)" stroke-width="1.5"></path><path d="M1151.99 522.69L1268.36 491.39" stroke="rgba(213, 213, 213, 0.61)" stroke-width="1.5"></path><path d="M1151.99 522.69L1105.42 669.23" stroke="rgba(213, 213, 213, 0.61)" stroke-width="1.5"></path><path d="M1105.42 669.23L1105.42 669.23" stroke="rgba(213, 213, 213, 0.61)" stroke-width="1.5"></path><path d="M1105.42 669.23L1108.04 836.19" stroke="rgba(213, 213, 213, 0.61)" stroke-width="1.5"></path><path d="M1105.42 669.23L993.79 797.96" stroke="rgba(213, 213, 213, 0.61)" stroke-width="1.5"></path><path d="M1108.04 836.19L1108.04 836.19" stroke="rgba(213, 213, 213, 0.61)" stroke-width="1.5"></path><path d="M1255.27 -54.82L1255.27 -54.82" stroke="rgba(213, 213, 213, 0.61)" stroke-width="1.5"></path><path d="M1255.27 -54.82L1300.6 95.84" stroke="rgba(213, 213, 213, 0.61)" stroke-width="1.5"></path><path d="M1255.27 -54.82L1436.88 -69.19" stroke="rgba(213, 213, 213, 0.61)" stroke-width="1.5"></path><path d="M1255.27 -54.82L1121.23 112.3" stroke="rgba(213, 213, 213, 0.61)" stroke-width="1.5"></path><path d="M1255.27 -54.82L1438.84 102.79" stroke="rgba(213, 213, 213, 0.61)" stroke-width="1.5"></path><path d="M1300.6 95.84L1300.6 95.84" stroke="rgba(213, 213, 213, 0.61)" stroke-width="1.5"></path><path d="M1300.6 95.84L1438.84 102.79" stroke="rgba(213, 213, 213, 0.61)" stroke-width="1.5"></path><path d="M1300.6 95.84L1411.06 211.08" stroke="rgba(213, 213, 213, 0.61)" stroke-width="1.5"></path><path d="M1300.6 95.84L1245.61 249.88" stroke="rgba(213, 213, 213, 0.61)" stroke-width="1.5"></path><path d="M1245.61 249.88L1245.61 249.88" stroke="rgba(213, 213, 213, 0.61)" stroke-width="1.5"></path><path d="M1245.61 249.88L1268.65 386.82" stroke="rgba(213, 213, 213, 0.61)" stroke-width="1.5"></path><path d="M1268.65 386.82L1268.65 386.82" stroke="rgba(213, 213, 213, 0.61)" stroke-width="1.5"></path><path d="M1268.65 386.82L1268.36 491.39" stroke="rgba(213, 213, 213, 0.61)" stroke-width="1.5"></path><path d="M1268.36 491.39L1268.36 491.39" stroke="rgba(213, 213, 213, 0.61)" stroke-width="1.5"></path><path d="M1268.36 491.39L1391.73 380.77" stroke="rgba(213, 213, 213, 0.61)" stroke-width="1.5"></path><path d="M1268.36 491.39L1275.8 678.09" stroke="rgba(213, 213, 213, 0.61)" stroke-width="1.5"></path><path d="M1268.36 491.39L1460.19 494.2" stroke="rgba(213, 213, 213, 0.61)" stroke-width="1.5"></path><path d="M1268.36 491.39L1094.15 373.79" stroke="rgba(213, 213, 213, 0.61)" stroke-width="1.5"></path><path d="M1275.8 678.09L1275.8 678.09" stroke="rgba(213, 213, 213, 0.61)" stroke-width="1.5"></path><path d="M1275.8 678.09L1301.96 804.2" stroke="rgba(213, 213, 213, 0.61)" stroke-width="1.5"></path><path d="M1275.8 678.09L1427.43 670.57" stroke="rgba(213, 213, 213, 0.61)" stroke-width="1.5"></path><path d="M1275.8 678.09L1105.42 669.23" stroke="rgba(213, 213, 213, 0.61)" stroke-width="1.5"></path><path d="M1275.8 678.09L1389.41 808.06" stroke="rgba(213, 213, 213, 0.61)" stroke-width="1.5"></path><path d="M1275.8 678.09L1151.99 522.69" stroke="rgba(213, 213, 213, 0.61)" stroke-width="1.5"></path><path d="M1301.96 804.2L1301.96 804.2" stroke="rgba(213, 213, 213, 0.61)" stroke-width="1.5"></path><path d="M1301.96 804.2L1389.41 808.06" stroke="rgba(213, 213, 213, 0.61)" stroke-width="1.5"></path><path d="M1436.88 -69.19L1436.88 -69.19" stroke="rgba(213, 213, 213, 0.61)" stroke-width="1.5"></path><path d="M1436.88 -69.19L1539.74 -106.53" stroke="rgba(213, 213, 213, 0.61)" stroke-width="1.5"></path><path d="M1438.84 102.79L1438.84 102.79" stroke="rgba(213, 213, 213, 0.61)" stroke-width="1.5"></path><path d="M1438.84 102.79L1411.06 211.08" stroke="rgba(213, 213, 213, 0.61)" stroke-width="1.5"></path><path d="M1411.06 211.08L1411.06 211.08" stroke="rgba(213, 213, 213, 0.61)" stroke-width="1.5"></path><path d="M1391.73 380.77L1391.73 380.77" stroke="rgba(213, 213, 213, 0.61)" stroke-width="1.5"></path><path d="M1391.73 380.77L1268.65 386.82" stroke="rgba(213, 213, 213, 0.61)" stroke-width="1.5"></path><path d="M1391.73 380.77L1460.19 494.2" stroke="rgba(213, 213, 213, 0.61)" stroke-width="1.5"></path><path d="M1460.19 494.2L1460.19 494.2" stroke="rgba(213, 213, 213, 0.61)" stroke-width="1.5"></path><path d="M1460.19 494.2L1592.72 496.79" stroke="rgba(213, 213, 213, 0.61)" stroke-width="1.5"></path><path d="M1460.19 494.2L1427.43 670.57" stroke="rgba(213, 213, 213, 0.61)" stroke-width="1.5"></path><path d="M1460.19 494.2L1573.55 666.22" stroke="rgba(213, 213, 213, 0.61)" stroke-width="1.5"></path><path d="M1460.19 494.2L1268.65 386.82" stroke="rgba(213, 213, 213, 0.61)" stroke-width="1.5"></path><path d="M1427.43 670.57L1427.43 670.57" stroke="rgba(213, 213, 213, 0.61)" stroke-width="1.5"></path><path d="M1427.43 670.57L1389.41 808.06" stroke="rgba(213, 213, 213, 0.61)" stroke-width="1.5"></path><path d="M1427.43 670.57L1573.55 666.22" stroke="rgba(213, 213, 213, 0.61)" stroke-width="1.5"></path><path d="M1389.41 808.06L1389.41 808.06" stroke="rgba(213, 213, 213, 0.61)" stroke-width="1.5"></path><path d="M1539.74 -106.53L1539.74 -106.53" stroke="rgba(213, 213, 213, 0.61)" stroke-width="1.5"></path><path d="M1539.74 -106.53L1575.77 79.15" stroke="rgba(213, 213, 213, 0.61)" stroke-width="1.5"></path><path d="M1539.74 -106.53L1438.84 102.79" stroke="rgba(213, 213, 213, 0.61)" stroke-width="1.5"></path><path d="M1539.74 -106.53L1255.27 -54.82" stroke="rgba(213, 213, 213, 0.61)" stroke-width="1.5"></path><path d="M1575.77 79.15L1575.77 79.15" stroke="rgba(213, 213, 213, 0.61)" stroke-width="1.5"></path><path d="M1575.77 79.15L1438.84 102.79" stroke="rgba(213, 213, 213, 0.61)" stroke-width="1.5"></path><path d="M1575.77 79.15L1598.7 244" stroke="rgba(213, 213, 213, 0.61)" stroke-width="1.5"></path><path d="M1598.7 244L1598.7 244" stroke="rgba(213, 213, 213, 0.61)" stroke-width="1.5"></path><path d="M1598.7 244L1411.06 211.08" stroke="rgba(213, 213, 213, 0.61)" stroke-width="1.5"></path><path d="M1598.7 244L1438.84 102.79" stroke="rgba(213, 213, 213, 0.61)" stroke-width="1.5"></path><path d="M1598.7 244L1391.73 380.77" stroke="rgba(213, 213, 213, 0.61)" stroke-width="1.5"></path><path d="M1592.72 496.79L1592.72 496.79" stroke="rgba(213, 213, 213, 0.61)" stroke-width="1.5"></path><path d="M1592.72 496.79L1573.55 666.22" stroke="rgba(213, 213, 213, 0.61)" stroke-width="1.5"></path><path d="M1573.55 666.22L1573.55 666.22" stroke="rgba(213, 213, 213, 0.61)" stroke-width="1.5"></path><path d="M1573.55 666.22L1574.5 853.31" stroke="rgba(213, 213, 213, 0.61)" stroke-width="1.5"></path><path d="M1574.5 853.31L1574.5 853.31" stroke="rgba(213, 213, 213, 0.61)" stroke-width="1.5"></path><path d="M1574.5 853.31L1389.41 808.06" stroke="rgba(213, 213, 213, 0.61)" stroke-width="1.5"></path><path d="M1574.5 853.31L1427.43 670.57" stroke="rgba(213, 213, 213, 0.61)" stroke-width="1.5"></path><path d="M1574.5 853.31L1301.96 804.2" stroke="rgba(213, 213, 213, 0.61)" stroke-width="1.5"></path><circle r="5" cx="-64.95" cy="508.06" fill="rgba(213, 213, 213, 0.61)"></circle><circle r="5" cx="-107.98" cy="678.52" fill="rgba(213, 213, 213, 0.61)"></circle><circle r="5" cx="-98.99" cy="855.31" fill="rgba(213, 213, 213, 0.61)"></circle><circle r="5" cx="91.38" cy="514.78" fill="rgba(213, 213, 213, 0.61)"></circle><circle r="5" cx="54.16" cy="665.08" fill="rgba(213, 213, 213, 0.61)"></circle><circle r="5" cx="80.48" cy="840.16" fill="rgba(213, 213, 213, 0.61)"></circle><circle r="5" cx="237.3" cy="399.74" fill="rgba(213, 213, 213, 0.61)"></circle><circle r="5" cx="203.57" cy="562.18" fill="rgba(213, 213, 213, 0.61)"></circle><circle r="5" cx="192.24" cy="680.01" fill="rgba(213, 213, 213, 0.61)"></circle><circle r="5" cx="225.61" cy="807.14" fill="rgba(213, 213, 213, 0.61)"></circle><circle r="5" cx="393.83" cy="559.86" fill="rgba(213, 213, 213, 0.61)"></circle><circle r="5" cx="364.93" cy="658.8" fill="rgba(213, 213, 213, 0.61)"></circle><circle r="5" cx="397.88" cy="852.05" fill="rgba(213, 213, 213, 0.61)"></circle><circle r="5" cx="528.08" cy="353.79" fill="rgba(213, 213, 213, 0.61)"></circle><circle r="5" cx="489.3" cy="534.88" fill="rgba(213, 213, 213, 0.61)"></circle><circle r="5" cx="521.15" cy="644.12" fill="rgba(213, 213, 213, 0.61)"></circle><circle r="5" cx="559.78" cy="836.15" fill="rgba(213, 213, 213, 0.61)"></circle><circle r="5" cx="689.82" cy="355.52" fill="rgba(213, 213, 213, 0.61)"></circle><circle r="5" cx="687.82" cy="538.61" fill="rgba(213, 213, 213, 0.61)"></circle><circle r="5" cx="707.46" cy="685.02" fill="rgba(213, 213, 213, 0.61)"></circle><circle r="5" cx="671.29" cy="794.55" fill="rgba(213, 213, 213, 0.61)"></circle><circle r="5" cx="862.42" cy="249.57" fill="rgba(213, 213, 213, 0.61)"></circle><circle r="5" cx="857.48" cy="358.47" fill="rgba(213, 213, 213, 0.61)"></circle><circle r="5" cx="861.92" cy="515.99" fill="rgba(213, 213, 213, 0.61)"></circle><circle r="5" cx="861.59" cy="704.24" fill="rgba(213, 213, 213, 0.61)"></circle><circle r="5" cx="842.79" cy="839.17" fill="rgba(213, 213, 213, 0.61)"></circle><circle r="5" cx="950.59" cy="192.12" fill="rgba(213, 213, 213, 0.61)"></circle><circle r="5" cx="999.43" cy="383.62" fill="rgba(213, 213, 213, 0.61)"></circle><circle r="5" cx="1007.67" cy="496.21" fill="rgba(213, 213, 213, 0.61)"></circle><circle r="5" cx="978.41" cy="697.58" fill="rgba(213, 213, 213, 0.61)"></circle><circle r="5" cx="993.79" cy="797.96" fill="rgba(213, 213, 213, 0.61)"></circle><circle r="5" cx="1152.85" cy="-100.85" fill="rgba(213, 213, 213, 0.61)"></circle><circle r="5" cx="1121.23" cy="112.3" fill="rgba(213, 213, 213, 0.61)"></circle><circle r="5" cx="1150.12" cy="214.79" fill="rgba(213, 213, 213, 0.61)"></circle><circle r="5" cx="1094.15" cy="373.79" fill="rgba(213, 213, 213, 0.61)"></circle><circle r="5" cx="1151.99" cy="522.69" fill="rgba(213, 213, 213, 0.61)"></circle><circle r="5" cx="1105.42" cy="669.23" fill="rgba(213, 213, 213, 0.61)"></circle><circle r="5" cx="1108.04" cy="836.19" fill="rgba(213, 213, 213, 0.61)"></circle><circle r="5" cx="1255.27" cy="-54.82" fill="rgba(213, 213, 213, 0.61)"></circle><circle r="5" cx="1300.6" cy="95.84" fill="rgba(213, 213, 213, 0.61)"></circle><circle r="5" cx="1245.61" cy="249.88" fill="rgba(213, 213, 213, 0.61)"></circle><circle r="5" cx="1268.65" cy="386.82" fill="rgba(213, 213, 213, 0.61)"></circle><circle r="5" cx="1268.36" cy="491.39" fill="rgba(213, 213, 213, 0.61)"></circle><circle r="5" cx="1275.8" cy="678.09" fill="rgba(213, 213, 213, 0.61)"></circle><circle r="5" cx="1301.96" cy="804.2" fill="rgba(213, 213, 213, 0.61)"></circle><circle r="5" cx="1436.88" cy="-69.19" fill="rgba(213, 213, 213, 0.61)"></circle><circle r="5" cx="1438.84" cy="102.79" fill="rgba(213, 213, 213, 0.61)"></circle><circle r="5" cx="1411.06" cy="211.08" fill="rgba(213, 213, 213, 0.61)"></circle><circle r="5" cx="1391.73" cy="380.77" fill="rgba(213, 213, 213, 0.61)"></circle><circle r="5" cx="1460.19" cy="494.2" fill="rgba(213, 213, 213, 0.61)"></circle><circle r="5" cx="1427.43" cy="670.57" fill="rgba(213, 213, 213, 0.61)"></circle><circle r="5" cx="1389.41" cy="808.06" fill="rgba(213, 213, 213, 0.61)"></circle><circle r="5" cx="1539.74" cy="-106.53" fill="rgba(213, 213, 213, 0.61)"></circle><circle r="5" cx="1575.77" cy="79.15" fill="rgba(213, 213, 213, 0.61)"></circle><circle r="5" cx="1598.7" cy="244" fill="rgba(213, 213, 213, 0.61)"></circle><circle r="5" cx="1592.72" cy="496.79" fill="rgba(213, 213, 213, 0.61)"></circle><circle r="5" cx="1573.55" cy="666.22" fill="rgba(213, 213, 213, 0.61)"></circle><circle r="5" cx="1574.5" cy="853.31" fill="rgba(213, 213, 213, 0.61)"></circle><path d="M696.35 508.68L696.35 508.68" stroke="hsl(0, 0%, 100%)" stroke-width="1.5"></path><path d="M696.35 508.68L535.93 523.27" stroke="hsl(0, 0%, 100%)" stroke-width="1.5"></path><path d="M696.35 508.68L815.44 388.16" stroke="hsl(0, 0%, 100%)" stroke-width="1.5"></path><path d="M687.18 841.79L687.18 841.79" stroke="hsl(0, 0%, 100%)" stroke-width="1.5"></path><path d="M687.18 841.79L663.16 689.17" stroke="hsl(0, 0%, 100%)" stroke-width="1.5"></path><path d="M687.18 841.79L854.04 844.43" stroke="hsl(0, 0%, 100%)" stroke-width="1.5"></path><path d="M687.18 841.79L498.07 817.81" stroke="hsl(0, 0%, 100%)" stroke-width="1.5"></path><path d="M687.18 841.79L823.01 690.08" stroke="hsl(0, 0%, 100%)" stroke-width="1.5"></path><path d="M815.44 388.16L815.44 388.16" stroke="hsl(0, 0%, 100%)" stroke-width="1.5"></path><path d="M815.44 388.16L974.63 350.75" stroke="hsl(0, 0%, 100%)" stroke-width="1.5"></path><path d="M823.01 690.08L823.01 690.08" stroke="hsl(0, 0%, 100%)" stroke-width="1.5"></path><path d="M823.01 690.08L854.04 844.43" stroke="hsl(0, 0%, 100%)" stroke-width="1.5"></path><path d="M823.01 690.08L663.16 689.17" stroke="hsl(0, 0%, 100%)" stroke-width="1.5"></path><path d="M823.01 690.08L1006.46 660.16" stroke="hsl(0, 0%, 100%)" stroke-width="1.5"></path><path d="M823.01 690.08L972.49 560.29" stroke="hsl(0, 0%, 100%)" stroke-width="1.5"></path><path d="M854.04 844.43L854.04 844.43" stroke="hsl(0, 0%, 100%)" stroke-width="1.5"></path><path d="M974.63 350.75L974.63 350.75" stroke="hsl(0, 0%, 100%)" stroke-width="1.5"></path><path d="M974.63 350.75L1131.47 379.72" stroke="hsl(0, 0%, 100%)" stroke-width="1.5"></path><path d="M1245.36 94.89L1245.36 94.89" stroke="hsl(0, 0%, 100%)" stroke-width="1.5"></path><path d="M1245.36 94.89L1161.69 202.21" stroke="hsl(0, 0%, 100%)" stroke-width="1.5"></path><path d="M1245.36 94.89L1239.04 253.03" stroke="hsl(0, 0%, 100%)" stroke-width="1.5"></path><path d="M1245.36 94.89L1278.1 -95.25" stroke="hsl(0, 0%, 100%)" stroke-width="1.5"></path><path d="M1245.36 94.89L1446.75 80.2" stroke="hsl(0, 0%, 100%)" stroke-width="1.5"></path><path d="M1245.36 94.89L1440.1 197.98" stroke="hsl(0, 0%, 100%)" stroke-width="1.5"></path><path d="M1245.36 94.89L1437.76 -48.4" stroke="hsl(0, 0%, 100%)" stroke-width="1.5"></path><path d="M1446.75 80.2L1446.75 80.2" stroke="hsl(0, 0%, 100%)" stroke-width="1.5"></path><path d="M1446.75 80.2L1440.1 197.98" stroke="hsl(0, 0%, 100%)" stroke-width="1.5"></path><path d="M1446.75 80.2L1437.76 -48.4" stroke="hsl(0, 0%, 100%)" stroke-width="1.5"></path><path d="M1446.75 80.2L1582.49 54.45" stroke="hsl(0, 0%, 100%)" stroke-width="1.5"></path><path d="M1446.75 80.2L1546.03 -63.16" stroke="hsl(0, 0%, 100%)" stroke-width="1.5"></path><path d="M1440.92 798.99L1440.92 798.99" stroke="hsl(0, 0%, 100%)" stroke-width="1.5"></path><path d="M1440.92 798.99L1406.1 644.31" stroke="hsl(0, 0%, 100%)" stroke-width="1.5"></path><path d="M1440.92 798.99L1591.37 856.57" stroke="hsl(0, 0%, 100%)" stroke-width="1.5"></path><path d="M1600.92 380.92L1600.92 380.92" stroke="hsl(0, 0%, 100%)" stroke-width="1.5"></path><path d="M1600.92 380.92L1564.38 259.08" stroke="hsl(0, 0%, 100%)" stroke-width="1.5"></path><path d="M1600.92 380.92L1586.54 544.61" stroke="hsl(0, 0%, 100%)" stroke-width="1.5"></path><path d="M1600.92 380.92L1407.3 517.01" stroke="hsl(0, 0%, 100%)" stroke-width="1.5"></path><path d="M-53.62 712.39L-53.62 712.39" stroke="hsl(0, 0%, 100%)" stroke-width="1.5"></path><path d="M-53.62 712.39L-72.25 801.18" stroke="hsl(0, 0%, 100%)" stroke-width="1.5"></path><path d="M-53.62 712.39L62.06 835.37" stroke="hsl(0, 0%, 100%)" stroke-width="1.5"></path><path d="M-53.62 712.39L38.53 548.12" stroke="hsl(0, 0%, 100%)" stroke-width="1.5"></path><path d="M-53.62 712.39L211.88 834.21" stroke="hsl(0, 0%, 100%)" stroke-width="1.5"></path><path d="M-53.62 712.39L260.23 677.99" stroke="hsl(0, 0%, 100%)" stroke-width="1.5"></path><path d="M-53.62 712.39L342.46 840.13" stroke="hsl(0, 0%, 100%)" stroke-width="1.5"></path><path d="M-72.25 801.18L-72.25 801.18" stroke="hsl(0, 0%, 100%)" stroke-width="1.5"></path><path d="M-72.25 801.18L62.06 835.37" stroke="hsl(0, 0%, 100%)" stroke-width="1.5"></path><path d="M38.53 548.12L38.53 548.12" stroke="hsl(0, 0%, 100%)" stroke-width="1.5"></path><path d="M38.53 548.12L260.23 677.99" stroke="hsl(0, 0%, 100%)" stroke-width="1.5"></path><path d="M62.06 835.37L62.06 835.37" stroke="hsl(0, 0%, 100%)" stroke-width="1.5"></path><path d="M62.06 835.37L211.88 834.21" stroke="hsl(0, 0%, 100%)" stroke-width="1.5"></path><path d="M260.23 677.99L260.23 677.99" stroke="hsl(0, 0%, 100%)" stroke-width="1.5"></path><path d="M260.23 677.99L407.42 640.61" stroke="hsl(0, 0%, 100%)" stroke-width="1.5"></path><path d="M260.23 677.99L211.88 834.21" stroke="hsl(0, 0%, 100%)" stroke-width="1.5"></path><path d="M260.23 677.99L342.46 840.13" stroke="hsl(0, 0%, 100%)" stroke-width="1.5"></path><path d="M211.88 834.21L211.88 834.21" stroke="hsl(0, 0%, 100%)" stroke-width="1.5"></path><path d="M211.88 834.21L342.46 840.13" stroke="hsl(0, 0%, 100%)" stroke-width="1.5"></path><path d="M211.88 834.21L407.42 640.61" stroke="hsl(0, 0%, 100%)" stroke-width="1.5"></path><path d="M211.88 834.21L-72.25 801.18" stroke="hsl(0, 0%, 100%)" stroke-width="1.5"></path><path d="M407.42 640.61L407.42 640.61" stroke="hsl(0, 0%, 100%)" stroke-width="1.5"></path><path d="M407.42 640.61L549.52 661.27" stroke="hsl(0, 0%, 100%)" stroke-width="1.5"></path><path d="M407.42 640.61L535.93 523.27" stroke="hsl(0, 0%, 100%)" stroke-width="1.5"></path><path d="M407.42 640.61L498.07 817.81" stroke="hsl(0, 0%, 100%)" stroke-width="1.5"></path><path d="M407.42 640.61L342.46 840.13" stroke="hsl(0, 0%, 100%)" stroke-width="1.5"></path><path d="M407.42 640.61L663.16 689.17" stroke="hsl(0, 0%, 100%)" stroke-width="1.5"></path><path d="M342.46 840.13L342.46 840.13" stroke="hsl(0, 0%, 100%)" stroke-width="1.5"></path><path d="M342.46 840.13L498.07 817.81" stroke="hsl(0, 0%, 100%)" stroke-width="1.5"></path><path d="M342.46 840.13L549.52 661.27" stroke="hsl(0, 0%, 100%)" stroke-width="1.5"></path><path d="M535.93 523.27L535.93 523.27" stroke="hsl(0, 0%, 100%)" stroke-width="1.5"></path><path d="M535.93 523.27L549.52 661.27" stroke="hsl(0, 0%, 100%)" stroke-width="1.5"></path><path d="M535.93 523.27L663.16 689.17" stroke="hsl(0, 0%, 100%)" stroke-width="1.5"></path><path d="M535.93 523.27L498.07 817.81" stroke="hsl(0, 0%, 100%)" stroke-width="1.5"></path><path d="M549.52 661.27L549.52 661.27" stroke="hsl(0, 0%, 100%)" stroke-width="1.5"></path><path d="M549.52 661.27L663.16 689.17" stroke="hsl(0, 0%, 100%)" stroke-width="1.5"></path><path d="M549.52 661.27L498.07 817.81" stroke="hsl(0, 0%, 100%)" stroke-width="1.5"></path><path d="M498.07 817.81L498.07 817.81" stroke="hsl(0, 0%, 100%)" stroke-width="1.5"></path><path d="M663.16 689.17L663.16 689.17" stroke="hsl(0, 0%, 100%)" stroke-width="1.5"></path><path d="M972.49 560.29L972.49 560.29" stroke="hsl(0, 0%, 100%)" stroke-width="1.5"></path><path d="M972.49 560.29L1006.46 660.16" stroke="hsl(0, 0%, 100%)" stroke-width="1.5"></path><path d="M972.49 560.29L1152.63 551.49" stroke="hsl(0, 0%, 100%)" stroke-width="1.5"></path><path d="M972.49 560.29L974.63 350.75" stroke="hsl(0, 0%, 100%)" stroke-width="1.5"></path><path d="M972.49 560.29L1142.81 697.84" stroke="hsl(0, 0%, 100%)" stroke-width="1.5"></path><path d="M1006.46 660.16L1006.46 660.16" stroke="hsl(0, 0%, 100%)" stroke-width="1.5"></path><path d="M1006.46 660.16L1142.81 697.84" stroke="hsl(0, 0%, 100%)" stroke-width="1.5"></path><path d="M1161.69 202.21L1161.69 202.21" stroke="hsl(0, 0%, 100%)" stroke-width="1.5"></path><path d="M1161.69 202.21L1239.04 253.03" stroke="hsl(0, 0%, 100%)" stroke-width="1.5"></path><path d="M1131.47 379.72L1131.47 379.72" stroke="hsl(0, 0%, 100%)" stroke-width="1.5"></path><path d="M1131.47 379.72L1258.71 410.03" stroke="hsl(0, 0%, 100%)" stroke-width="1.5"></path><path d="M1131.47 379.72L1239.04 253.03" stroke="hsl(0, 0%, 100%)" stroke-width="1.5"></path><path d="M1131.47 379.72L1152.63 551.49" stroke="hsl(0, 0%, 100%)" stroke-width="1.5"></path><path d="M1131.47 379.72L1161.69 202.21" stroke="hsl(0, 0%, 100%)" stroke-width="1.5"></path><path d="M1152.63 551.49L1152.63 551.49" stroke="hsl(0, 0%, 100%)" stroke-width="1.5"></path><path d="M1152.63 551.49L1270.73 556.2" stroke="hsl(0, 0%, 100%)" stroke-width="1.5"></path><path d="M1152.63 551.49L1142.81 697.84" stroke="hsl(0, 0%, 100%)" stroke-width="1.5"></path><path d="M1142.81 697.84L1142.81 697.84" stroke="hsl(0, 0%, 100%)" stroke-width="1.5"></path><path d="M1142.81 697.84L1135.84 844.17" stroke="hsl(0, 0%, 100%)" stroke-width="1.5"></path><path d="M1135.84 844.17L1135.84 844.17" stroke="hsl(0, 0%, 100%)" stroke-width="1.5"></path><path d="M1135.84 844.17L1276.77 788.55" stroke="hsl(0, 0%, 100%)" stroke-width="1.5"></path><path d="M1135.84 844.17L1006.46 660.16" stroke="hsl(0, 0%, 100%)" stroke-width="1.5"></path><path d="M1135.84 844.17L1309.23 653.07" stroke="hsl(0, 0%, 100%)" stroke-width="1.5"></path><path d="M1135.84 844.17L854.04 844.43" stroke="hsl(0, 0%, 100%)" stroke-width="1.5"></path><path d="M1135.84 844.17L1152.63 551.49" stroke="hsl(0, 0%, 100%)" stroke-width="1.5"></path><path d="M1278.1 -95.25L1278.1 -95.25" stroke="hsl(0, 0%, 100%)" stroke-width="1.5"></path><path d="M1278.1 -95.25L1437.76 -48.4" stroke="hsl(0, 0%, 100%)" stroke-width="1.5"></path><path d="M1239.04 253.03L1239.04 253.03" stroke="hsl(0, 0%, 100%)" stroke-width="1.5"></path><path d="M1239.04 253.03L1258.71 410.03" stroke="hsl(0, 0%, 100%)" stroke-width="1.5"></path><path d="M1258.71 410.03L1258.71 410.03" stroke="hsl(0, 0%, 100%)" stroke-width="1.5"></path><path d="M1258.71 410.03L1270.73 556.2" stroke="hsl(0, 0%, 100%)" stroke-width="1.5"></path><path d="M1258.71 410.03L1152.63 551.49" stroke="hsl(0, 0%, 100%)" stroke-width="1.5"></path><path d="M1258.71 410.03L1407.3 517.01" stroke="hsl(0, 0%, 100%)" stroke-width="1.5"></path><path d="M1258.71 410.03L1161.69 202.21" stroke="hsl(0, 0%, 100%)" stroke-width="1.5"></path><path d="M1270.73 556.2L1270.73 556.2" stroke="hsl(0, 0%, 100%)" stroke-width="1.5"></path><path d="M1270.73 556.2L1309.23 653.07" stroke="hsl(0, 0%, 100%)" stroke-width="1.5"></path><path d="M1270.73 556.2L1407.3 517.01" stroke="hsl(0, 0%, 100%)" stroke-width="1.5"></path><path d="M1270.73 556.2L1406.1 644.31" stroke="hsl(0, 0%, 100%)" stroke-width="1.5"></path><path d="M1270.73 556.2L1142.81 697.84" stroke="hsl(0, 0%, 100%)" stroke-width="1.5"></path><path d="M1309.23 653.07L1309.23 653.07" stroke="hsl(0, 0%, 100%)" stroke-width="1.5"></path><path d="M1309.23 653.07L1406.1 644.31" stroke="hsl(0, 0%, 100%)" stroke-width="1.5"></path><path d="M1309.23 653.07L1276.77 788.55" stroke="hsl(0, 0%, 100%)" stroke-width="1.5"></path><path d="M1276.77 788.55L1276.77 788.55" stroke="hsl(0, 0%, 100%)" stroke-width="1.5"></path><path d="M1276.77 788.55L1142.81 697.84" stroke="hsl(0, 0%, 100%)" stroke-width="1.5"></path><path d="M1276.77 788.55L1440.92 798.99" stroke="hsl(0, 0%, 100%)" stroke-width="1.5"></path><path d="M1276.77 788.55L1406.1 644.31" stroke="hsl(0, 0%, 100%)" stroke-width="1.5"></path><path d="M1276.77 788.55L1270.73 556.2" stroke="hsl(0, 0%, 100%)" stroke-width="1.5"></path><path d="M1437.76 -48.4L1437.76 -48.4" stroke="hsl(0, 0%, 100%)" stroke-width="1.5"></path><path d="M1437.76 -48.4L1546.03 -63.16" stroke="hsl(0, 0%, 100%)" stroke-width="1.5"></path><path d="M1437.76 -48.4L1582.49 54.45" stroke="hsl(0, 0%, 100%)" stroke-width="1.5"></path><path d="M1440.1 197.98L1440.1 197.98" stroke="hsl(0, 0%, 100%)" stroke-width="1.5"></path><path d="M1440.1 197.98L1564.38 259.08" stroke="hsl(0, 0%, 100%)" stroke-width="1.5"></path><path d="M1440.1 197.98L1582.49 54.45" stroke="hsl(0, 0%, 100%)" stroke-width="1.5"></path><path d="M1440.1 197.98L1239.04 253.03" stroke="hsl(0, 0%, 100%)" stroke-width="1.5"></path><path d="M1407.3 517.01L1407.3 517.01" stroke="hsl(0, 0%, 100%)" stroke-width="1.5"></path><path d="M1407.3 517.01L1406.1 644.31" stroke="hsl(0, 0%, 100%)" stroke-width="1.5"></path><path d="M1406.1 644.31L1406.1 644.31" stroke="hsl(0, 0%, 100%)" stroke-width="1.5"></path><path d="M1406.1 644.31L1598.63 677.76" stroke="hsl(0, 0%, 100%)" stroke-width="1.5"></path><path d="M1546.03 -63.16L1546.03 -63.16" stroke="hsl(0, 0%, 100%)" stroke-width="1.5"></path><path d="M1546.03 -63.16L1582.49 54.45" stroke="hsl(0, 0%, 100%)" stroke-width="1.5"></path><path d="M1546.03 -63.16L1278.1 -95.25" stroke="hsl(0, 0%, 100%)" stroke-width="1.5"></path><path d="M1546.03 -63.16L1440.1 197.98" stroke="hsl(0, 0%, 100%)" stroke-width="1.5"></path><path d="M1582.49 54.45L1582.49 54.45" stroke="hsl(0, 0%, 100%)" stroke-width="1.5"></path><path d="M1564.38 259.08L1564.38 259.08" stroke="hsl(0, 0%, 100%)" stroke-width="1.5"></path><path d="M1564.38 259.08L1582.49 54.45" stroke="hsl(0, 0%, 100%)" stroke-width="1.5"></path><path d="M1564.38 259.08L1446.75 80.2" stroke="hsl(0, 0%, 100%)" stroke-width="1.5"></path><path d="M1564.38 259.08L1586.54 544.61" stroke="hsl(0, 0%, 100%)" stroke-width="1.5"></path><path d="M1564.38 259.08L1407.3 517.01" stroke="hsl(0, 0%, 100%)" stroke-width="1.5"></path><path d="M1586.54 544.61L1586.54 544.61" stroke="hsl(0, 0%, 100%)" stroke-width="1.5"></path><path d="M1586.54 544.61L1598.63 677.76" stroke="hsl(0, 0%, 100%)" stroke-width="1.5"></path><path d="M1598.63 677.76L1598.63 677.76" stroke="hsl(0, 0%, 100%)" stroke-width="1.5"></path><path d="M1598.63 677.76L1591.37 856.57" stroke="hsl(0, 0%, 100%)" stroke-width="1.5"></path><path d="M1598.63 677.76L1440.92 798.99" stroke="hsl(0, 0%, 100%)" stroke-width="1.5"></path><path d="M1598.63 677.76L1407.3 517.01" stroke="hsl(0, 0%, 100%)" stroke-width="1.5"></path><path d="M1598.63 677.76L1309.23 653.07" stroke="hsl(0, 0%, 100%)" stroke-width="1.5"></path><path d="M1591.37 856.57L1591.37 856.57" stroke="hsl(0, 0%, 100%)" stroke-width="1.5"></path><path d="M1591.37 856.57L1406.1 644.31" stroke="hsl(0, 0%, 100%)" stroke-width="1.5"></path><path d="M1591.37 856.57L1586.54 544.61" stroke="hsl(0, 0%, 100%)" stroke-width="1.5"></path><path d="M1591.37 856.57L1276.77 788.55" stroke="hsl(0, 0%, 100%)" stroke-width="1.5"></path><circle r="25" cx="696.35" cy="508.68" fill="url(&quot;#SvgjsRadialGradient1025&quot;)"></circle><circle r="25" cx="687.18" cy="841.79" fill="url(&quot;#SvgjsRadialGradient1025&quot;)"></circle><circle r="25" cx="815.44" cy="388.16" fill="url(&quot;#SvgjsRadialGradient1025&quot;)"></circle><circle r="25" cx="823.01" cy="690.08" fill="url(&quot;#SvgjsRadialGradient1025&quot;)"></circle><circle r="25" cx="854.04" cy="844.43" fill="url(&quot;#SvgjsRadialGradient1025&quot;)"></circle><circle r="25" cx="974.63" cy="350.75" fill="url(&quot;#SvgjsRadialGradient1025&quot;)"></circle><circle r="25" cx="1245.36" cy="94.89" fill="url(&quot;#SvgjsRadialGradient1025&quot;)"></circle><circle r="25" cx="1446.75" cy="80.2" fill="url(&quot;#SvgjsRadialGradient1025&quot;)"></circle><circle r="25" cx="1440.92" cy="798.99" fill="url(&quot;#SvgjsRadialGradient1025&quot;)"></circle><circle r="25" cx="1600.92" cy="380.92" fill="url(&quot;#SvgjsRadialGradient1025&quot;)"></circle><circle r="5" cx="-53.62" cy="712.39" fill="#ffffff"></circle><circle r="5" cx="-72.25" cy="801.18" fill="#ffffff"></circle><circle r="5" cx="38.53" cy="548.12" fill="#ffffff"></circle><circle r="5" cx="62.06" cy="835.37" fill="#ffffff"></circle><circle r="5" cx="260.23" cy="677.99" fill="#ffffff"></circle><circle r="5" cx="211.88" cy="834.21" fill="#ffffff"></circle><circle r="5" cx="407.42" cy="640.61" fill="#ffffff"></circle><circle r="5" cx="342.46" cy="840.13" fill="#ffffff"></circle><circle r="5" cx="535.93" cy="523.27" fill="#ffffff"></circle><circle r="5" cx="549.52" cy="661.27" fill="#ffffff"></circle><circle r="5" cx="498.07" cy="817.81" fill="#ffffff"></circle><circle r="5" cx="663.16" cy="689.17" fill="#ffffff"></circle><circle r="5" cx="972.49" cy="560.29" fill="#ffffff"></circle><circle r="5" cx="1006.46" cy="660.16" fill="#ffffff"></circle><circle r="5" cx="1161.69" cy="202.21" fill="#ffffff"></circle><circle r="5" cx="1131.47" cy="379.72" fill="#ffffff"></circle><circle r="5" cx="1152.63" cy="551.49" fill="#ffffff"></circle><circle r="5" cx="1142.81" cy="697.84" fill="#ffffff"></circle><circle r="5" cx="1135.84" cy="844.17" fill="#ffffff"></circle><circle r="5" cx="1278.1" cy="-95.25" fill="#ffffff"></circle><circle r="5" cx="1239.04" cy="253.03" fill="#ffffff"></circle><circle r="5" cx="1258.71" cy="410.03" fill="#ffffff"></circle><circle r="5" cx="1270.73" cy="556.2" fill="#ffffff"></circle><circle r="5" cx="1309.23" cy="653.07" fill="#ffffff"></circle><circle r="5" cx="1276.77" cy="788.55" fill="#ffffff"></circle><circle r="5" cx="1437.76" cy="-48.4" fill="#ffffff"></circle><circle r="5" cx="1440.1" cy="197.98" fill="#ffffff"></circle><circle r="5" cx="1407.3" cy="517.01" fill="#ffffff"></circle><circle r="5" cx="1406.1" cy="644.31" fill="#ffffff"></circle><circle r="5" cx="1546.03" cy="-63.16" fill="#ffffff"></circle><circle r="5" cx="1582.49" cy="54.45" fill="#ffffff"></circle><circle r="5" cx="1564.38" cy="259.08" fill="#ffffff"></circle><circle r="5" cx="1586.54" cy="544.61" fill="#ffffff"></circle><circle r="5" cx="1598.63" cy="677.76" fill="#ffffff"></circle><circle r="5" cx="1591.37" cy="856.57" fill="#ffffff"></circle></g><defs><mask id="SvgjsMask1024"><rect width="1440" height="682" fill="#ffffff"></rect></mask><radialGradient id="SvgjsRadialGradient1025"><stop stop-color="#ffffff" offset="0.1"></stop><stop stop-color="rgba(255, 255, 255, 1)" offset="0.2"></stop><stop stop-color="rgba(255, 255, 255, 0)" offset="1"></stop></radialGradient></defs></svg>