<svg xmlns="http://www.w3.org/2000/svg" version="1.1" xmlns:xlink="http://www.w3.org/1999/xlink" xmlns:svgjs="http://svgjs.dev/svgjs" width="1440" height="1440" preserveAspectRatio="none" viewBox="0 0 1440 1440"><g mask="url(&quot;#SvgjsMask1001&quot;)" fill="none"><path d="M -1625.7285015448315,858 C -1337.73,722.8 -761.73,198.4 -185.72850154483137,182 C 390.27,165.6 929.13,703.6 1254.2714984551685,776 C 1579.42,848.4 1402.85,590.4 1440,544" stroke="rgba(255, 255, 255, 0.7)" stroke-width="2"></path><path d="M -585.8953929569868,597 C -297.9,629.2 278.1,744 854.1046070430132,758 C 1430.1,772 2176.93,627.4 2294.104607043013,667 C 2411.28,706.6 1610.82,898.2 1440,956" stroke="rgba(255, 255, 255, 0.7)" stroke-width="2"></path><path d="M -2504.621047500401,1192 C -2216.62,1015.8 -1640.62,294.8 -1064.6210475004007,311 C -488.62,327.2 -125.55,1215.8 375.37895249959934,1273 C 876.3,1330.2 1227.08,732.2 1440,597" stroke="rgba(255, 255, 255, 0.7)" stroke-width="2"></path><path d="M -1446.4366167100095,729 C -1158.44,688.2 -582.44,519.8 -6.436616710009417,525 C 569.56,530.2 1144.28,729.4 1433.5633832899905,755 C 1722.85,780.6 1438.71,673.4 1440,653" stroke="rgba(255, 255, 255, 0.7)" stroke-width="2"></path><path d="M -1553.0562860197217,1220 C -1265.06,1080.8 -689.06,588.8 -113.05628601972163,524 C 462.94,459.2 1016.33,870.8 1326.9437139802783,896 C 1637.55,921.2 1417.39,699.2 1440,650" stroke="rgba(255, 255, 255, 0.7)" stroke-width="2"></path><path d="M -449.1029394977261,901 C -161.1,749.4 414.9,159 990.8970605022739,143 C 1566.9,127 2341.08,707.6 2430.897060502274,821 C 2520.72,934.4 1638.18,732.2 1440,710" stroke="rgba(255, 255, 255, 0.7)" stroke-width="2"></path><path d="M -2738.467506771666,1236 C -2450.47,1053.4 -1874.47,414.6 -1298.467506771666,323 C -722.47,231.4 -406.16,807.6 141.53249322833403,778 C 689.23,748.4 1180.31,295.6 1440,175" stroke="rgba(255, 255, 255, 0.7)" stroke-width="2"></path><path d="M -1839.6110904285897,523 C -1551.61,566.2 -975.61,792 -399.6110904285897,739 C 176.39,686 672.47,224 1040.3889095714103,258 C 1408.31,292 1360.08,778.8 1440,909" stroke="rgba(255, 255, 255, 0.7)" stroke-width="2"></path></g><defs><mask id="SvgjsMask1001"><rect width="1440" height="1440" fill="#ffffff"></rect></mask></defs></svg>